<svg xmlns="http://www.w3.org/2000/svg" viewBox="0 0 155 54.89"><defs><style>.cls-1{fill:#e6323c}</style></defs><g id="Ebene_2" data-name="Ebene 2"><g id="Hanseatic_Bank" data-name="Hanseatic Bank"><path class="cls-1" d="M 148.7 26.5 c 3.5 0 5.4 -1.2 6.3 -2.4 V 21 a 11 11 0 0 1 -4.9 1.3 c -3.1 0 -4.6 -1.4 -4.6 -5 v -0.8 c 0 -3.3 1.8 -4.4 4.3 -4.4 a 10.4 10.4 0 0 1 5 1.1 V 9.2 c -1 -1.2 -2.8 -1.9 -6.2 -1.9 c -4.7 0 -9.1 3.2 -9.1 9.5 c 0 6.1 3.7 9.7 9.2 9.7 M 131.4 7.7 h 5.9 v 18.3 h -5.9 z M 134.3 6.3 a 3.1 3.1 0 0 0 3.2 -3.1 A 3.1 3.1 0 0 0 134.4 0 a 3.3 3.3 0 0 0 -3.3 3.2 a 3.1 3.1 0 0 0 3.2 3.1 M 123.7 26.6 c 2.8 0 4.2 -0.9 4.9 -1.9 V 22 a 6 6 0 0 1 -2.2 0.4 c -2.1 0 -2.9 -0.8 -2.9 -3 v -7.8 h 5.2 V 7.7 h -5.2 V 2.9 H 120 c -0.9 3.5 -1.6 5.3 -4.8 5.6 v 3 h 2.3 v 9.1 c 0 4.5 3 5.9 6.1 5.9 M 42.3 26.1 h 5.9 v -9.7 c 0 -3.1 1.4 -4.7 3.5 -4.7 c 1.8 0 2.6 1 2.6 3 v 11.4 h 6 V 13.9 c 0 -4.5 -2.2 -6.6 -5.9 -6.6 c -3.4 0 -5.5 2 -6.4 5 V 12 a 9.2 9.2 0 0 0 -0.5 -3 a 9.4 9.4 0 0 0 -0.5 -1.2 h -4.8 z M 0 26.1 h 6.1 v -9.8 h 8.6 v 9.8 h 6 V 2.2 H 14.7 v 9.4 H 6.1 V 2.2 H 0 v 23.9 z M 39.6 25.1 a 33.4 33.4 0 0 1 -0.1 -4.2 v -5.8 c 0 -4.9 -2.2 -7.8 -7.9 -7.8 c -4.4 0 -6.5 1.7 -7.4 2.9 v 3.6 A 11.3 11.3 0 0 1 30 12.1 c 2.8 0 3.5 0.8 3.5 1.9 v 0.1 c 0 1 -1 1.4 -3.5 2 c -3.7 0.9 -7 1.6 -7 5.5 c 0 3 2.1 5 5.2 5 c 2.8 0 4.7 -1.4 5.5 -3.6 a 6.1 6.1 0 0 0 0.5 2.3 a 4.6 4.6 0 0 0 0.4 0.9 h 5.2 a 4.4 4.4 0 0 1 -0.2 -1 z m -6.1 -5.5 c 0 2.4 -1.1 3.7 -2.6 3.7 a 1.8 1.8 0 0 1 -2 -2 V 21 c 0 -1.3 0.9 -1.9 2.5 -2.6 a 9.1 9.1 0 0 0 2.1 -1.2 z M 60.2 54.4 h 5.9 v -9 l 5.4 9 h 6.5 l -6.4 -10.2 l 6.3 -8.2 h -5.9 l -5.9 8.2 l 0.2 -15 h -5.9 l -0.2 25.2 z M 11.9 42.5 v -0.1 c 3.9 -0.5 5.9 -2 5.9 -5.6 c 0 -4.4 -3.1 -6.3 -8.8 -6.3 H 0 v 23.9 h 8.9 c 7.7 0 9.9 -2.6 9.9 -6.6 c 0 -3.4 -2.3 -5 -6.9 -5.3 z M 6.1 35 h 2.9 c 2.2 0 3.2 1 3.2 2.8 s -0.9 3 -3.4 3 H 6.1 z m 2.7 15.3 H 6.1 v -5.8 h 2.6 c 3.1 0 4.2 0.9 4.2 2.9 s -0.7 2.9 -4.1 2.9 z M 39.4 54.4 h 5.9 v -9.7 c 0 -3.1 1.4 -4.7 3.5 -4.7 c 1.8 0 2.6 1 2.6 3 v 11.4 h 6 V 42.2 c 0 -4.5 -2.2 -6.6 -5.9 -6.6 c -3.4 0 -5.5 2 -6.4 5 v -0.3 a 9.2 9.2 0 0 0 -0.5 -3 a 9.4 9.4 0 0 0 -0.5 -1.2 h -4.8 z M 36.8 53.4 a 33.4 33.4 0 0 1 -0.1 -4.2 V 43.4 c 0 -4.9 -2.2 -7.8 -7.9 -7.8 c -4.4 0 -6.5 1.7 -7.4 2.9 v 3.6 a 11.3 11.3 0 0 1 5.9 -1.7 c 2.8 0 3.5 0.8 3.5 1.9 v 0.1 c 0 1 -1 1.4 -3.5 2 c -3.7 0.9 -7 1.6 -7 5.5 c 0 3 2.1 5 5.2 5 c 2.8 0 4.7 -1.4 5.5 -3.6 a 6.1 6.1 0 0 0 0.5 2.3 a 4.6 4.6 0 0 0 0.4 0.9 H 37 a 4.4 4.4 0 0 1 -0.2 -1 z m -6.1 -5.5 c 0 2.4 -1.1 3.7 -2.6 3.7 a 1.8 1.8 0 0 1 -2 -2 v -0.2 c 0 -1.3 0.9 -1.9 2.5 -2.6 a 9.1 9.1 0 0 0 2.1 -1.2 z M 114 25.1 a 33.3 33.3 0 0 1 -0.1 -4.2 v -5.8 c 0 -4.9 -2.2 -7.8 -7.9 -7.8 c -4.4 0 -6.5 1.7 -7.4 2.9 v 3.6 a 11.3 11.3 0 0 1 5.9 -1.7 c 2.8 0 3.5 0.8 3.5 1.9 v 0.1 c 0 1 -1 1.4 -3.5 2 c -3.7 0.9 -7 1.6 -7 5.5 c 0 3 2.1 5 5.2 5 c 2.8 0 4.7 -1.4 5.5 -3.6 a 6.1 6.1 0 0 0 0.5 2.3 a 4.6 4.6 0 0 0 0.4 0.9 h 5.2 a 4.4 4.4 0 0 1 -0.2 -1 z m -6.1 -5.5 c 0 2.4 -1.1 3.7 -2.6 3.7 a 1.8 1.8 0 0 1 -2 -2 V 21 c 0 -1.3 0.9 -1.9 2.5 -2.6 a 9.1 9.1 0 0 0 2.1 -1.2 z M 69.5 26.6 c 4.9 0 7.9 -2.1 7.9 -6.5 a 4.5 4.5 0 0 0 -2.5 -4.5 c -1.7 -0.9 -4.5 -0.9 -6.1 -1.4 c -0.8 -0.2 -1.1 -0.6 -1.1 -1.2 c 0 -1.1 1 -1.6 2.9 -1.6 a 13.6 13.6 0 0 1 5.7 1.2 V 9 c -1.2 -1 -3.2 -1.7 -5.9 -1.7 c -3.9 0 -7.8 1.6 -7.8 6.3 a 5 5 0 0 0 2.5 4.8 c 1.9 1 4.4 1 5.7 1.3 c 0.8 0.3 1.2 0.7 1.2 1.2 c 0 1.2 -0.9 1.7 -3.3 1.7 A 12.1 12.1 0 0 1 62.7 21 v 3.6 c 1.3 1.2 3.5 2 6.8 2 M 96.3 15 c 0 -4.5 -2.8 -7.7 -8.3 -7.7 c -5.2 0 -9.2 3.5 -9.2 9.6 c 0 6.3 3.4 9.6 9.7 9.6 c 3.5 0 6 -1.2 6.9 -2.4 V 21 a 12.2 12.2 0 0 1 -5.2 1 c -3.3 0 -5.2 -0.8 -5.3 -4 h 10.9 a 8.4 8.4 0 0 0 0.6 -3 z m -5.3 0.4 h -6.1 c 0.1 -3 1.4 -4.4 3.3 -4.4 c 1.8 0 2.8 1.2 2.8 4 z"/></g></g></svg>
